<svg width="66" height="62" viewBox="0 0 66 62" fill="none" xmlns="http://www.w3.org/2000/svg">
<path d="M33 0C26.9429 0 21.9989 4.87432 21.9989 10.8461C21.9989 16.8179 26.9429 21.6923 33 21.6923C39.0571 21.6923 44.0011 16.8179 44.0011 10.8461C44.0011 4.87432 39.0571 0 33 0ZM33 3.09891C37.3584 3.09891 40.8579 6.54909 40.8579 10.8461C40.8579 15.1432 37.3584 18.5934 33 18.5934C28.6416 18.5934 25.1421 15.1432 25.1421 10.8461C25.1421 6.54909 28.6416 3.09891 33 3.09891ZM33 24.7912C24.3911 24.7912 16.9947 30.7157 15.0741 38.712C11.3604 39.6834 8.21968 41.5292 5.93923 43.8445C5.78286 44.011 5.6655 44.2094 5.59545 44.4256L0.0948912 59.9201C-0.0361481 60.2748 -0.0313233 60.6645 0.10846 61.016C0.248243 61.3675 0.513368 61.6566 0.854046 61.829C1.19472 62.0014 1.58752 62.0452 1.95866 61.9523C2.32981 61.8594 2.65378 61.636 2.86972 61.3242C5.36742 57.7852 11.0709 55.0054 17.2841 55.0054C23.5403 55.0054 29.2091 57.7308 31.6985 61.3001C31.8425 61.5098 32.0365 61.6814 32.2633 61.8001C32.4902 61.9188 32.7432 61.9809 33 61.9809C33.2568 61.9809 33.5098 61.9188 33.7367 61.8001C33.9635 61.6814 34.1575 61.5098 34.3015 61.3001C36.7909 57.7308 42.4597 55.0054 48.7159 55.0054C54.9291 55.0054 60.6326 57.7852 63.1303 61.3242C63.3462 61.636 63.6702 61.8594 64.0413 61.9523C64.4125 62.0452 64.8053 62.0014 65.146 61.829C65.4866 61.6566 65.7518 61.3675 65.8915 61.016C66.0313 60.6645 66.0361 60.2748 65.9051 59.9201L60.4045 44.4256C60.3345 44.2094 60.2171 44.011 60.0608 43.8445C57.7803 41.5292 54.6396 39.6834 50.9259 38.712C49.0053 30.7157 41.6089 24.7912 33 24.7912V24.7912ZM33 27.8901C39.6546 27.8901 45.4219 32.1937 47.4635 38.1068C46.6602 38.0242 45.848 37.9615 45.0079 37.9615C40.4642 37.9615 36.2293 39.5114 33 41.5688C29.7707 39.5114 25.5358 37.9615 20.9921 37.9615C20.152 37.9615 19.3398 38.0243 18.5365 38.1068C20.5781 32.1937 26.3454 27.8901 33 27.8901V27.8901ZM20.9921 41.0604C24.8419 41.0604 28.6723 42.4406 31.4284 44.2078V56.7001C27.8721 53.7215 22.8019 51.9065 17.2841 51.9065C12.6961 51.9065 8.43598 53.2466 5.03066 55.3685L8.39484 45.854C11.1874 43.1196 15.621 41.0604 20.9921 41.0604ZM45.0079 41.0604C50.379 41.0604 54.8126 43.1196 57.6052 45.854L60.9693 55.3685C57.564 53.2466 53.3039 51.9065 48.7159 51.9065C43.1981 51.9065 38.1279 53.7215 34.5716 56.7001V44.2078C37.3277 42.4406 41.1581 41.0604 45.0079 41.0604Z" fill="#AFAFAF"/>
</svg>
