<svg width="84" height="74" viewBox="0 0 84 74" fill="none" xmlns="http://www.w3.org/2000/svg">
<path d="M23.0771 36.468V51.9497C23.0771 58.1424 28.431 63.303 35.2617 63.303H50.7693C51.5078 63.303 52.2462 63.475 52.8001 63.9911L64.8 73.1081C67.5692 75.1723 71.8154 73.4521 71.8154 70.0117V63.303C78.4615 63.303 83.9999 58.3144 83.9999 51.9497V36.468C83.9999 30.2753 78.6461 25.1147 71.8154 25.1147H35.2617C28.6156 25.1147 23.0771 30.1033 23.0771 36.468ZM78.6461 51.7777C78.6461 55.2181 75.6923 58.1424 71.8154 58.1424H69.4154C67.7539 58.1424 66.2769 59.3465 66.2769 61.0667V63.303V67.7755L53.9078 58.4864C53.7232 58.3144 53.3539 58.1424 52.9847 58.1424H34.8925C31.2002 58.1424 28.0617 55.3901 28.0617 51.7777V36.296C28.0617 32.8556 31.0156 29.9313 34.8925 29.9313H71.6308C75.3231 29.9313 78.4615 32.6836 78.4615 36.296V51.7777H78.6461Z" fill="#AFAFAF"/>
<path d="M14.9538 5.16057H51.5075C56.6767 5.16057 60.9228 9.11701 60.9228 13.9335V17.5459H66.2766V13.9335C66.2766 6.19269 59.6305 0 51.3229 0H14.9538C6.64613 0 0 6.19269 0 13.9335V29.2432C0 36.9841 6.64613 43.1768 14.9538 43.1768V38.1882C9.78457 38.1882 5.53844 34.2318 5.53844 29.4153V14.1056C5.53844 9.11701 9.78457 5.16057 14.9538 5.16057Z" fill="#AFAFAF"/>
</svg>
