<svg width="70" height="70" viewBox="0 0 70 70" fill="none" xmlns="http://www.w3.org/2000/svg">
<path d="M34.878 0C15.6098 0 0 15.7986 0 35C0 54.2014 15.6098 70 35.1219 70C54.6341 70 70 54.2014 70 35C70 15.7986 54.3902 0 34.878 0ZM14.1463 26.0069C14.1463 20.9028 18.2927 16.7708 23.4146 16.7708C28.5366 16.7708 32.6829 20.9028 32.6829 26.0069C32.6829 31.1111 28.5366 35.2431 23.4146 35.2431C18.2927 35.2431 14.1463 31.1111 14.1463 26.0069ZM34.878 58.0903C29.7561 58.0903 25.6098 53.9583 25.6098 48.8542C25.6098 43.75 29.7561 39.6181 34.878 39.6181C40 39.6181 44.1463 43.75 44.1463 48.8542C44.1463 53.9583 40 58.0903 34.878 58.0903ZM46.3415 35.2431C41.2195 35.2431 37.0732 31.1111 37.0732 26.0069C37.0732 20.9028 41.2195 16.7708 46.3415 16.7708C51.4634 16.7708 55.6098 20.9028 55.6098 26.0069C55.6098 31.1111 51.4634 35.2431 46.3415 35.2431Z" fill="#AFAFAF" fill-opacity="0.87"/>
</svg>
