<svg width="23" height="35" viewBox="0 0 23 35" fill="none" xmlns="http://www.w3.org/2000/svg">
<path fill-rule="evenodd" clip-rule="evenodd" d="M14.7385 1.28968L20.5999 6.24852C21.2382 6.78861 21.7539 7.47633 22.1085 8.26013C22.4631 9.04393 22.6473 9.90346 22.6473 10.7743V24.2258C22.6473 25.0967 22.4631 25.9562 22.1085 26.74C21.7539 27.5238 21.2382 28.2115 20.5999 28.7516L14.7385 33.7104C13.7867 34.5157 12.6089 34.9537 11.3956 34.9537C10.1823 34.9537 9.0045 34.5157 8.05268 33.7104L2.19127 28.7516C1.55292 28.2115 1.03709 27.5238 0.682453 26.74C0.327816 25.9562 0.143579 25.0967 0.143555 24.2258V10.7743C0.143579 9.90343 0.327816 9.04388 0.682453 8.26008C1.03709 7.47628 1.55292 6.78857 2.19127 6.24852L8.05268 1.28968C9.0045 0.484435 10.1823 0.0463867 11.3956 0.0463867C12.6089 0.0463867 13.7867 0.484435 14.7385 1.28968V1.28968Z" fill="#FF3A47"/>
<path d="M0.539945 26.4018C0.278247 25.7152 0.143625 24.9807 0.143555 24.2391V10.7607C0.143555 9.00413 0.897523 7.34298 2.19127 6.24836L8.01063 1.32529C8.97433 0.509974 10.1671 0.0670482 11.3956 0.0683623V17.423L0.539945 26.4018Z" fill="#FF6B71"/>
<path fill-rule="evenodd" clip-rule="evenodd" d="M22.1522 8.35498C22.4782 9.10902 22.6471 9.92991 22.6471 10.7607V24.2392C22.6471 25.9957 21.8935 27.6569 20.5997 28.7515L14.7804 33.6746C13.8499 34.4618 12.7049 34.9026 11.519 34.93V17.7927C11.519 17.7042 11.5564 17.6207 11.6204 17.5646L22.1522 8.35498V8.35498Z" fill="#F12B37"/>
<path fill-rule="evenodd" clip-rule="evenodd" d="M11.3954 6.99609L17.8246 12.248V22.7519L11.3954 28.0038L4.96582 22.7519V12.248L11.3954 6.99609Z" fill="#FF3744"/>
</svg>
