<svg width="23" height="37" viewBox="0 0 23 37" fill="none" xmlns="http://www.w3.org/2000/svg">
<path fill-rule="evenodd" clip-rule="evenodd" d="M14.7385 1.36316L20.5999 6.60537C21.2382 7.17632 21.7539 7.90334 22.1085 8.73193C22.4631 9.56052 22.6473 10.4692 22.6473 11.3898V25.61C22.6473 26.5305 22.4631 27.4392 22.1085 28.2678C21.7539 29.0964 21.2382 29.8234 20.5999 30.3943L14.7385 35.6365C13.7867 36.4878 12.6089 36.9509 11.3956 36.9509C10.1823 36.9509 9.0045 36.4878 8.05268 35.6365L2.19127 30.3943C1.55292 29.8234 1.03709 29.0964 0.682452 28.2678C0.327816 27.4392 0.143579 26.5306 0.143555 25.61V11.3898C0.143579 10.4691 0.327816 9.56046 0.682452 8.73187C1.03709 7.90328 1.55292 7.17628 2.19127 6.60537L8.05268 1.36316C9.0045 0.511908 10.1823 0.0488281 11.3956 0.0488281C12.6089 0.0488281 13.7867 0.511908 14.7385 1.36316Z" fill="#FF3A47"/>
<path d="M0.539945 27.9105C0.278247 27.1846 0.143625 26.4082 0.143555 25.6242V11.3756C0.143555 9.51865 0.897523 7.76258 2.19127 6.60541L8.01063 1.40102C8.97433 0.539115 10.1671 0.0708795 11.3956 0.0722687V18.4186L0.539945 27.9105Z" fill="#FF6B71"/>
<path fill-rule="evenodd" clip-rule="evenodd" d="M22.1527 8.83252C22.4787 9.62965 22.6476 10.4974 22.6476 11.3758V25.6244C22.6476 27.4813 21.894 29.2374 20.6002 30.3946L14.7809 35.599C13.8504 36.4312 12.7053 36.8972 11.5195 36.9261V18.8095C11.5195 18.716 11.5569 18.6278 11.6209 18.5684L22.1527 8.83252Z" fill="#F12B37"/>
<path fill-rule="evenodd" clip-rule="evenodd" d="M11.3954 7.396L17.8246 12.948V24.0521L11.3954 29.6041L4.96582 24.0521V12.948L11.3954 7.396Z" fill="#FF3744"/>
</svg>
