<svg width="50" height="49" viewBox="0 0 50 49" fill="none" xmlns="http://www.w3.org/2000/svg">
<path d="M13.7363 24.148V34.3994C13.7363 38.4999 16.9231 41.9171 20.9891 41.9171H30.2198C30.6594 41.9171 31.0989 42.031 31.4286 42.3727L38.5714 48.4096C40.2198 49.7764 42.7472 48.6374 42.7472 46.3593V41.9171C46.7033 41.9171 50 38.6139 50 34.3994V24.148C50 20.0475 46.8132 16.6304 42.7472 16.6304H20.9891C17.033 16.6304 13.7363 19.9336 13.7363 24.148ZM46.8132 34.2855C46.8132 36.5636 45.0549 38.4999 42.7472 38.4999H41.3187C40.3297 38.4999 39.4505 39.2973 39.4505 40.4363V41.9171V44.8786L32.0879 38.7278C31.978 38.6139 31.7583 38.4999 31.5385 38.4999H20.7693C18.5715 38.4999 16.7034 36.6775 16.7034 34.2855V24.0341C16.7034 21.7561 18.4616 19.8197 20.7693 19.8197H42.6373C44.8351 19.8197 46.7033 21.6421 46.7033 24.0341V34.2855H46.8132Z" fill="#AFAFAF"/>
<path d="M8.90108 3.41712H30.6593C33.7362 3.41712 36.2636 6.03691 36.2636 9.22623V11.6182H39.4505V9.22623C39.4505 4.10055 35.4944 0 30.5494 0H8.90108C3.95603 0 0 4.10055 0 9.22623V19.3637C0 24.4894 3.95603 28.5899 8.90108 28.5899V25.2867C5.82416 25.2867 3.29669 22.6669 3.29669 19.4776V9.34013C3.29669 6.03691 5.82416 3.41712 8.90108 3.41712Z" fill="#AFAFAF"/>
</svg>
