<svg width="53" height="48" viewBox="0 0 53 48" fill="none" xmlns="http://www.w3.org/2000/svg">
<path d="M26.5 0C21.6359 0 17.6658 3.77367 17.6658 8.397C17.6658 13.0203 21.6359 16.794 26.5 16.794C31.3641 16.794 35.3342 13.0203 35.3342 8.397C35.3342 3.77367 31.3641 0 26.5 0ZM26.5 2.39916C30 2.39916 32.8102 5.07026 32.8102 8.397C32.8102 11.7237 30 14.3949 26.5 14.3949C23 14.3949 20.1898 11.7237 20.1898 8.397C20.1898 5.07026 23 2.39916 26.5 2.39916ZM26.5 19.1932C19.5868 19.1932 13.6472 23.7799 12.1049 29.9706C9.12272 30.7226 6.60066 32.1516 4.76938 33.9441C4.64381 34.073 4.54957 34.2266 4.49331 34.394L0.0762005 46.3898C-0.029028 46.6644 -0.0251535 46.9661 0.0870965 47.2382C0.199347 47.5103 0.41225 47.7342 0.685825 47.8676C0.9594 48.0011 1.27483 48.035 1.57287 47.9631C1.87091 47.8911 2.13106 47.7182 2.30448 47.4768C4.3102 44.7369 8.89024 42.5848 13.8797 42.5848C18.9036 42.5848 23.4558 44.6948 25.4549 47.4581C25.5705 47.6205 25.7262 47.7533 25.9084 47.8452C26.0906 47.9371 26.2937 47.9852 26.5 47.9852C26.7063 47.9852 26.9094 47.9371 27.0916 47.8452C27.2738 47.7533 27.4295 47.6205 27.5451 47.4581C29.5442 44.6948 34.0964 42.5848 39.1203 42.5848C44.1098 42.5848 48.6898 44.7369 50.6955 47.4768C50.8689 47.7182 51.1291 47.8911 51.4271 47.9631C51.7252 48.035 52.0406 48.0011 52.3142 47.8676C52.5877 47.7342 52.8007 47.5103 52.9129 47.2382C53.0252 46.9661 53.029 46.6644 52.9238 46.3898L48.5067 34.394C48.4504 34.2266 48.3562 34.073 48.2306 33.9441C46.3993 32.1516 43.8773 30.7226 40.8951 29.9706C39.3528 23.7799 33.4132 19.1932 26.5 19.1932ZM26.5 21.5923C31.8438 21.5923 36.4752 24.9242 38.1146 29.502C37.4695 29.4381 36.8173 29.3896 36.1427 29.3896C32.494 29.3896 29.0932 30.5895 26.5 32.1823C23.9068 30.5895 20.506 29.3896 16.8573 29.3896C16.1827 29.3896 15.5305 29.4382 14.8854 29.502C16.5248 24.9242 21.1562 21.5923 26.5 21.5923ZM16.8573 31.7887C19.9488 31.7887 23.0248 32.8572 25.238 34.2254V43.8969C22.3822 41.5908 18.3106 40.1857 13.8797 40.1857C10.1954 40.1857 6.77435 41.2232 4.03977 42.8659L6.74131 35.4999C8.9838 33.3829 12.5441 31.7887 16.8573 31.7887ZM36.1427 31.7887C40.4559 31.7887 44.0162 33.3829 46.2587 35.4999L48.9602 42.8659C46.2257 41.2232 42.8046 40.1857 39.1203 40.1857C34.6894 40.1857 30.6178 41.5908 27.762 43.8969V34.2254C29.9752 32.8572 33.0512 31.7887 36.1427 31.7887Z" fill="#AFAFAF"/>
</svg>
