<svg width="1301" height="343" viewBox="0 0 1301 343" fill="none" xmlns="http://www.w3.org/2000/svg">
<ellipse cx="297.5" cy="250.401" rx="3.5" ry="3.53959" fill="white" fill-opacity="0.5"/>
<ellipse cx="266.5" cy="147.248" rx="3.5" ry="3.53959" fill="white" fill-opacity="0.5"/>
<ellipse cx="211.5" cy="164.44" rx="3.5" ry="3.53959" fill="white" fill-opacity="0.5"/>
<ellipse cx="83.5" cy="101.739" rx="3.5" ry="3.53959" fill="white" fill-opacity="0.5"/>
<ellipse cx="3.5" cy="122.976" rx="3.5" ry="3.53959" fill="white" fill-opacity="0.5"/>
<ellipse cx="90.5" cy="250.401" rx="3.5" ry="3.53959" fill="white" fill-opacity="0.5"/>
<ellipse cx="41.5" cy="275.684" rx="3.5" ry="3.53959" fill="white" fill-opacity="0.5"/>
<ellipse cx="1267.5" cy="40.0489" rx="3.5" ry="3.53959" fill="white" fill-opacity="0.5"/>
<ellipse cx="426.5" cy="239.277" rx="3.5" ry="3.53959" fill="white" fill-opacity="0.5"/>
<ellipse cx="544.5" cy="233.21" rx="3.5" ry="3.53959" fill="white" fill-opacity="0.5"/>
<ellipse cx="632.5" cy="275.684" rx="3.5" ry="3.53959" fill="white" fill-opacity="0.5"/>
<ellipse cx="747.5" cy="261.526" rx="3.5" ry="3.53959" fill="white" fill-opacity="0.5"/>
<ellipse cx="800.5" cy="312.092" rx="3.5" ry="3.53959" fill="white" fill-opacity="0.5"/>
<ellipse cx="1175.5" cy="108.818" rx="3.5" ry="3.53959" fill="white" fill-opacity="0.5"/>
<ellipse cx="1083.5" cy="3.64116" rx="3.5" ry="3.53959" fill="white" fill-opacity="0.5"/>
<ellipse cx="944.5" cy="226.13" rx="3.5" ry="3.53959" fill="white" fill-opacity="0.5"/>
<ellipse cx="1009.5" cy="328.272" rx="3.5" ry="3.53959" fill="white" fill-opacity="0.5"/>
<ellipse cx="1119.5" cy="254.447" rx="3.5" ry="3.53959" fill="white" fill-opacity="0.5"/>
<ellipse cx="1201.5" cy="223.096" rx="3.5" ry="3.53959" fill="white" fill-opacity="0.5"/>
<ellipse cx="1197.5" cy="328.272" rx="3.5" ry="3.53959" fill="white" fill-opacity="0.5"/>
<ellipse cx="1297.5" cy="243.322" rx="3.5" ry="3.53959" fill="white" fill-opacity="0.5"/>
<ellipse cx="1290.5" cy="167.474" rx="3.5" ry="3.53959" fill="white" fill-opacity="0.5"/>
<ellipse cx="584.5" cy="339.397" rx="3.5" ry="3.53959" fill="white" fill-opacity="0.5"/>
<ellipse cx="501.5" cy="313.103" rx="3.5" ry="3.53959" fill="white" fill-opacity="0.5"/>
<ellipse cx="344.5" cy="332.318" rx="3.5" ry="3.53959" fill="white" fill-opacity="0.5"/>
<ellipse cx="122.5" cy="335.352" rx="3.5" ry="3.53959" fill="white" fill-opacity="0.5"/>
</svg>
