<svg width="191" height="155" viewBox="0 0 191 155" fill="none" xmlns="http://www.w3.org/2000/svg">
<g clip-path="url(#clip0)">
<mask id="mask0" mask-type="alpha" maskUnits="userSpaceOnUse" x="17" y="20" width="103" height="135">
<path d="M80.3926 99.918V110.065H82.4342C102.73 110.065 119.183 127.851 119.183 149.793V154.759H17.1025V149.793C17.1025 127.851 33.5557 110.065 53.8516 110.065H55.8932V99.918C47.0952 95.3997 40.7711 86.1655 39.716 75.2371C36.743 74.7828 34.4563 72.0208 34.4563 68.6814V60.9565C34.4563 57.6756 36.6635 54.9521 39.5603 54.4267V51.0245C39.5603 33.9592 52.3572 20.125 68.1429 20.125C83.9287 20.125 96.7255 33.9592 96.7255 51.0245V54.4267C99.6223 54.9521 101.83 57.6756 101.83 60.9565V68.6814C101.83 72.0208 99.5428 74.7828 96.5698 75.2371C95.5147 86.1655 89.1906 95.3997 80.3926 99.918Z" fill="white"/>
</mask>
<g mask="url(#mask0)">
<path d="M80.3926 99.918V110.065H82.4342C102.73 110.065 119.183 127.851 119.183 149.793V154.759H17.1025V149.793C17.1025 127.851 33.5557 110.065 53.8516 110.065H55.8932V99.918C47.0952 95.3997 40.7711 86.1655 39.716 75.2371C36.743 74.7828 34.4563 72.0208 34.4563 68.6814V60.9565C34.4563 57.6756 36.6635 54.9521 39.5603 54.4267V51.0245C39.5603 33.9592 52.3572 20.125 68.1429 20.125C83.9287 20.125 96.7255 33.9592 96.7255 51.0245V54.4267C99.6223 54.9521 101.83 57.6756 101.83 60.9565V68.6814C101.83 72.0208 99.5428 74.7828 96.5698 75.2371C95.5147 86.1655 89.1906 95.3997 80.3926 99.918Z" fill="#D0C6AC"/>
<path d="M135.516 20.125H0.769531V154.759H135.516V20.125Z" fill="#AE5D29"/>
<path fill-rule="evenodd" clip-rule="evenodd" d="M96.7257 63.7153V76.4062C96.7257 93.4715 83.9289 107.306 68.1431 107.306C52.3574 107.306 39.5605 93.4715 39.5605 76.4062V63.7153V71.992C39.5605 89.0573 52.3574 102.891 68.1431 102.891C83.9289 102.891 96.7257 89.0573 96.7257 71.992V63.7153Z" fill="black" fill-opacity="0.1"/>
</g>
<mask id="mask1" mask-type="alpha" maskUnits="userSpaceOnUse" x="17" y="110" width="103" height="45">
<path fill-rule="evenodd" clip-rule="evenodd" d="M85.3047 110.213C104.259 111.796 119.183 128.924 119.183 149.821V154.759H17.1025V149.821C17.1025 128.734 32.2999 111.484 51.5001 110.173C51.3681 110.767 51.2996 111.376 51.2996 111.996C51.2996 118.548 58.9549 123.859 68.3981 123.859C77.8414 123.859 85.4966 118.548 85.4966 111.996C85.4966 111.39 85.4311 110.794 85.3047 110.213L85.3047 110.213Z" fill="white"/>
</mask>
<g mask="url(#mask1)">
<path fill-rule="evenodd" clip-rule="evenodd" d="M85.3047 110.213C104.259 111.796 119.183 128.924 119.183 149.821V154.759H17.1025V149.821C17.1025 128.734 32.2999 111.484 51.5001 110.173C51.3681 110.767 51.2996 111.376 51.2996 111.996C51.2996 118.548 58.9549 123.859 68.3981 123.859C77.8414 123.859 85.4966 118.548 85.4966 111.996C85.4966 111.39 85.4311 110.794 85.3047 110.213L85.3047 110.213Z" fill="#E6E6E6"/>
<path d="M135.516 94.063H0.769531V154.758H135.516V94.063Z" fill="#25557C"/>
<path fill-rule="evenodd" clip-rule="evenodd" d="M84.8258 133.462C84.1144 129.913 81.6563 127.862 78.4453 127.069C77.1561 126.751 72.8756 125.752 73.5424 128.397C73.8448 129.596 73.6767 130.585 72.7495 131.579C71.8461 132.548 70.0794 132.793 69.2013 131.573C68.4488 130.527 69.4191 128.968 68.833 127.95C68.6054 127.554 68.2126 127.352 67.7981 127.546C67.2156 127.818 67.5257 128.403 67.2504 128.825C66.8173 129.488 66.6148 129.281 66.2249 128.619C65.9798 128.203 66.2207 127.75 65.5885 127.572C64.8569 127.367 64.6175 128.029 64.5513 128.633C64.5097 129.012 64.7157 129.622 64.7229 130.006C64.7369 130.759 64.6767 131.84 64.353 132.505C63.7789 133.684 62.9725 133.307 62.1158 132.558C61.105 131.674 60.8084 130.69 61.004 129.348C61.2383 127.739 61.1533 126.198 59.3302 127.205C56.7676 128.62 54.3897 131.142 52.9049 133.782C51.6571 136 50.6749 138.689 51.7804 141.216C52.9087 143.795 54.7724 146.011 57.3777 146.669C58.0522 146.84 59.9765 147.669 60.6164 146.974C61.6099 145.894 59.3158 144.887 58.8629 144.229C58.2208 143.296 57.6699 141.517 58.3748 140.465C59.2726 139.125 60.2116 139.872 60.9497 140.82C61.5291 141.563 62.3526 143.482 63.2493 141.935C63.8666 140.87 63.8114 139.121 65.4954 139.885C67.9017 140.976 67.9755 146.016 68.4045 148.322C68.5919 149.331 69.4433 150.564 70.176 149.163C70.5787 148.393 70.3614 146.724 70.288 145.928C70.1365 144.281 69.7369 142.662 70.232 141.03C70.5184 140.086 71.2532 138.735 72.3399 139.461C73.2201 140.049 72.8533 142.67 74.0508 142.665C75.1057 142.661 74.8179 140.573 75.3795 139.885C76.2367 138.834 77.8886 139.333 78.3956 140.574C79.0782 142.243 77.2716 143.402 77.3526 144.869C77.4316 146.299 79.136 145.741 79.849 145.378C81.3145 144.633 82.4613 143.252 83.256 141.753C84.4848 139.433 85.3618 136.113 84.8258 133.462Z" fill="white"/>
</g>
<path d="M60.9976 83.0279C60.9976 85.9919 64.1407 87.9939 68.1432 87.9939C72.1457 87.9939 75.2888 85.9919 75.2888 83.0279C75.2888 82.4184 74.8041 81.9243 74.268 81.9243C73.6082 81.9243 73.3137 82.4238 73.2472 83.0279C72.6131 84.6489 71.0439 85.6302 68.1432 85.7868C65.2424 85.6302 63.6733 84.6489 63.0392 83.0279C62.9727 82.4238 62.6782 81.9243 62.0184 81.9243C61.4823 81.9243 60.9976 82.4184 60.9976 83.0279Z" fill="black" fill-opacity="0.6"/>
<path fill-rule="evenodd" clip-rule="evenodd" d="M62.0181 71.9927C62.0181 74.4306 64.7602 76.4069 68.1429 76.4069C71.5255 76.4069 74.2677 74.4306 74.2677 71.9927" fill="black" fill-opacity="0.16"/>
<mask id="mask2" mask-type="alpha" maskUnits="userSpaceOnUse" x="47" y="57" width="16" height="9">
<path fill-rule="evenodd" clip-rule="evenodd" d="M54.8722 64.8461C59.7772 64.8461 62.0179 67.3023 62.0179 63.4742C62.0179 59.6462 58.8187 57.0947 54.8722 57.0947C50.9258 57.0947 47.7266 59.6462 47.7266 63.4742C47.7266 67.3023 49.9672 64.8461 54.8722 64.8461Z" fill="white"/>
</mask>
<g mask="url(#mask2)">
<path fill-rule="evenodd" clip-rule="evenodd" d="M54.8722 64.8461C59.7772 64.8461 62.0179 67.3023 62.0179 63.4742C62.0179 59.6462 58.8187 57.0947 54.8722 57.0947C50.9258 57.0947 47.7266 59.6462 47.7266 63.4742C47.7266 67.3023 49.9672 64.8461 54.8722 64.8461Z" fill="white"/>
<path d="M54.8725 65.9231C56.5638 65.9231 57.9349 64.4408 57.9349 62.6124C57.9349 60.784 56.5638 59.3018 54.8725 59.3018C53.1812 59.3018 51.8101 60.784 51.8101 62.6124C51.8101 64.4408 53.1812 65.9231 54.8725 65.9231Z" fill="black" fill-opacity="0.7"/>
</g>
<mask id="mask3" mask-type="alpha" maskUnits="userSpaceOnUse" x="74" y="57" width="15" height="9">
<path fill-rule="evenodd" clip-rule="evenodd" d="M81.4132 64.8461C86.3182 64.8461 88.5589 67.3023 88.5589 63.4742C88.5589 59.6462 85.3597 57.0947 81.4132 57.0947C77.4668 57.0947 74.2676 59.6462 74.2676 63.4742C74.2676 67.3023 76.5083 64.8461 81.4132 64.8461Z" fill="white"/>
</mask>
<g mask="url(#mask3)">
<path fill-rule="evenodd" clip-rule="evenodd" d="M81.4132 64.8461C86.3182 64.8461 88.5589 67.3023 88.5589 63.4742C88.5589 59.6462 85.3597 57.0947 81.4132 57.0947C77.4668 57.0947 74.2676 59.6462 74.2676 63.4742C74.2676 67.3023 76.5083 64.8461 81.4132 64.8461Z" fill="white"/>
<path d="M81.4135 65.9231C83.1048 65.9231 84.4759 64.4408 84.4759 62.6124C84.4759 60.784 83.1048 59.3018 81.4135 59.3018C79.7222 59.3018 78.3511 60.784 78.3511 62.6124C78.3511 64.4408 79.7222 65.9231 81.4135 65.9231Z" fill="black" fill-opacity="0.7"/>
</g>
<path d="M47.7145 54.958C48.4776 49.7033 54.9023 46.1189 59.5496 48.4322C60.0617 48.6871 60.6679 48.445 60.9037 47.8913C61.1395 47.3377 60.9155 46.6823 60.4034 46.4274C54.5401 43.5088 46.6732 47.8978 45.6976 54.6157C45.6101 55.2178 45.9907 55.7825 46.5477 55.877C47.1046 55.9716 47.627 55.5601 47.7145 54.958Z" fill="black" fill-opacity="0.6"/>
<path d="M88.5717 54.958C87.8085 49.7033 81.3838 46.1189 76.7366 48.4322C76.2245 48.6871 75.6182 48.445 75.3824 47.8913C75.1466 47.3377 75.3706 46.6823 75.8827 46.4274C81.746 43.5088 89.6129 47.8978 90.5886 54.6157C90.676 55.2178 90.2954 55.7825 89.7385 55.877C89.1815 55.9716 88.6591 55.5601 88.5717 54.958Z" fill="black" fill-opacity="0.6"/>
<mask id="mask4" mask-type="alpha" maskUnits="userSpaceOnUse" x="0" y="0" width="136" height="155">
<path d="M135.516 0.26123H0.769531V154.759H135.516V0.26123Z" fill="white"/>
</mask>
<g mask="url(#mask4)">
<mask id="mask5" mask-type="alpha" maskUnits="userSpaceOnUse" x="0" y="0" width="134" height="108">
<path fill-rule="evenodd" clip-rule="evenodd" d="M41.1018 40.9881C40.1026 44.135 39.5602 47.5114 39.5602 51.0247V54.4269C36.6634 54.9523 34.4562 57.6758 34.4562 60.9567V68.1298C34.4562 71.4507 36.7177 74.2006 39.6667 74.6778C40.5564 85.85 46.9453 95.323 55.8931 99.9182V105.957C53.4918 107.176 50.8105 107.858 47.9819 107.858C43.4871 107.858 39.3641 106.137 36.1458 103.271C35.1717 103.385 34.1822 103.443 33.1802 103.443C22.4135 103.443 13.1022 96.7072 8.65583 86.9206C4.81922 84.0892 2.30074 79.3242 2.30074 73.9234C2.30074 72.7566 2.41829 71.6195 2.64127 70.5252C1.43122 67.0327 0.769531 63.2505 0.769531 59.3013C0.769531 52.2627 2.87143 45.7548 6.4337 40.4711C6.40076 40.0393 6.38397 39.6025 6.38397 39.1615C6.38397 32.9278 9.7391 27.5413 14.6037 24.9972C18.9076 14.9946 28.1055 7.95074 38.8712 7.46153C41.4905 4.71258 45.0638 3.02011 49.0027 3.02011C50.1904 3.02011 51.3448 3.17399 52.4499 3.46431C57.31 1.39679 62.6037 0.26123 68.1428 0.26123C73.4234 0.26123 78.4811 1.29329 83.1526 3.18101C83.8347 3.07499 84.5321 3.02011 85.2413 3.02011C89.1802 3.02011 92.7535 4.71258 95.3728 7.46153C106.138 7.95074 115.336 14.9946 119.64 24.9972C124.505 27.5413 127.86 32.9278 127.86 39.1615C127.86 39.6025 127.843 40.0393 127.81 40.4711C131.373 45.7548 133.474 52.2627 133.474 59.3013C133.474 63.2505 132.813 67.0327 131.603 70.5252C131.826 71.6195 131.943 72.7566 131.943 73.9234C131.943 79.3242 129.425 84.0892 125.588 86.9206C121.142 96.7072 111.831 103.443 101.064 103.443C100.062 103.443 99.0723 103.385 98.0982 103.271C94.8799 106.137 90.7569 107.858 86.2621 107.858C84.2113 107.858 82.2379 107.499 80.3925 106.838V99.9182C89.3403 95.323 95.7292 85.85 96.6189 74.6778C99.5679 74.2006 101.829 71.4507 101.829 68.1298V60.9567C101.829 57.6758 99.6222 54.9523 96.7254 54.4269V51.0247C96.7254 48.0222 96.3293 45.1198 95.5905 42.3751L96.2932 49.4768L90.5049 36.2341L67.4674 25.4613L52.0973 31.2867L41.1245 42.4277L41.1018 40.9881Z" fill="white"/>
</mask>
<g mask="url(#mask5)">
<path fill-rule="evenodd" clip-rule="evenodd" d="M41.1018 40.9881C40.1026 44.135 39.5602 47.5114 39.5602 51.0247V54.4269C36.6634 54.9523 34.4562 57.6758 34.4562 60.9567V68.1298C34.4562 71.4507 36.7177 74.2006 39.6667 74.6778C40.5564 85.85 46.9453 95.323 55.8931 99.9182V105.957C53.4918 107.176 50.8105 107.858 47.9819 107.858C43.4871 107.858 39.3641 106.137 36.1458 103.271C35.1717 103.385 34.1822 103.443 33.1802 103.443C22.4135 103.443 13.1022 96.7072 8.65583 86.9206C4.81922 84.0892 2.30074 79.3242 2.30074 73.9234C2.30074 72.7566 2.41829 71.6195 2.64127 70.5252C1.43122 67.0327 0.769531 63.2505 0.769531 59.3013C0.769531 52.2627 2.87143 45.7548 6.4337 40.4711C6.40076 40.0393 6.38397 39.6025 6.38397 39.1615C6.38397 32.9278 9.7391 27.5413 14.6037 24.9972C18.9076 14.9946 28.1055 7.95074 38.8712 7.46153C41.4905 4.71258 45.0638 3.02011 49.0027 3.02011C50.1904 3.02011 51.3448 3.17399 52.4499 3.46431C57.31 1.39679 62.6037 0.26123 68.1428 0.26123C73.4234 0.26123 78.4811 1.29329 83.1526 3.18101C83.8347 3.07499 84.5321 3.02011 85.2413 3.02011C89.1802 3.02011 92.7535 4.71258 95.3728 7.46153C106.138 7.95074 115.336 14.9946 119.64 24.9972C124.505 27.5413 127.86 32.9278 127.86 39.1615C127.86 39.6025 127.843 40.0393 127.81 40.4711C131.373 45.7548 133.474 52.2627 133.474 59.3013C133.474 63.2505 132.813 67.0327 131.603 70.5252C131.826 71.6195 131.943 72.7566 131.943 73.9234C131.943 79.3242 129.425 84.0892 125.588 86.9206C121.142 96.7072 111.831 103.443 101.064 103.443C100.062 103.443 99.0723 103.385 98.0982 103.271C94.8799 106.137 90.7569 107.858 86.2621 107.858C84.2113 107.858 82.2379 107.499 80.3925 106.838V99.9182C89.3403 95.323 95.7292 85.85 96.6189 74.6778C99.5679 74.2006 101.829 71.4507 101.829 68.1298V60.9567C101.829 57.6758 99.6222 54.9523 96.7254 54.4269V51.0247C96.7254 48.0222 96.3293 45.1198 95.5905 42.3751L96.2932 49.4768L90.5049 36.2341L67.4674 25.4613L52.0973 31.2867L41.1245 42.4277L41.1018 40.9881Z" fill="#314756"/>
<path d="M135.006 0.26123H0.259277V154.759H135.006V0.26123Z" fill="#2C1B18"/>
<path fill-rule="evenodd" clip-rule="evenodd" d="M39.3721 54.8731C39.1598 53.4651 39.0498 52.0237 39.0498 50.5566C39.0498 34.6639 51.9609 21.7803 67.8876 21.7803C83.8143 21.7803 96.7254 34.6639 96.7254 50.5566C96.7254 52.0237 96.6154 53.4651 96.4031 54.8731C94.3161 41.028 82.3441 30.4132 67.8876 30.4132C53.4311 30.4132 41.4591 41.028 39.3721 54.8731Z" fill="#92D9FF"/>
<g filter="url(#filter0_d)">
<path fill-rule="evenodd" clip-rule="evenodd" d="M59.593 55.5905C60.8035 55.6029 61.3758 55.8205 61.582 57.1852C61.7909 58.5676 61.5878 60.1217 61.3468 61.4833C60.9791 63.5624 60.3676 65.5994 58.9441 67.119C58.1942 67.9193 57.2796 68.5571 56.3068 68.9926C55.7902 69.224 55.2447 69.391 54.6994 69.5178C54.5399 69.5547 53.1788 69.7574 54.0136 69.6544C52.0655 69.8948 49.952 69.8852 48.325 68.5448C46.5218 67.0592 45.287 64.7085 44.7441 62.3669C44.4264 60.9969 43.7589 57.72 44.9785 56.6246C46.3757 55.3695 59.593 55.5905 59.593 55.5905ZM47.3274 51.8469C44.5506 51.9503 42.6974 52.4778 41.3278 55.4769C38.8179 60.9731 43.114 69.2159 47.9064 71.462C53.5091 74.0883 59.7681 71.1819 62.7302 65.9257C64.2989 63.1427 65.0918 58.9277 65.0408 55.7167C64.9758 51.6185 62.3278 51.5048 59.2153 51.5949L47.3274 51.8469Z" fill="#D6EAF2"/>
<path fill-rule="evenodd" clip-rule="evenodd" d="M76.6567 55.5894C75.4462 55.6019 74.874 55.8193 74.6678 57.1841C74.4588 58.5665 74.662 60.1206 74.9028 61.4822C75.2706 63.5613 75.8822 65.5983 77.3057 67.1179C78.0556 67.9181 78.9702 68.556 79.9429 68.9917C80.4595 69.2229 81.005 69.3899 81.5504 69.5166C81.7098 69.5536 83.0707 69.7565 82.2361 69.6533C84.1842 69.8937 86.2977 69.8841 87.9248 68.5437C89.7279 67.0581 90.9627 64.7075 91.5057 62.366C91.8234 60.9957 92.4907 57.7191 91.2712 56.6235C89.8741 55.3684 76.6567 55.5894 76.6567 55.5894ZM88.9222 51.8458C91.6992 51.9492 93.5523 52.4769 94.9219 55.4758C97.4317 60.972 93.1358 69.2148 88.3434 71.4611C82.7406 74.0872 76.4816 71.1808 73.5194 65.9248C71.9509 63.1416 71.158 58.9266 71.2088 55.7156C71.274 51.6174 73.922 51.5037 77.0345 51.594L88.9222 51.8458Z" fill="#D6EAF2"/>
<path fill-rule="evenodd" clip-rule="evenodd" d="M42.7231 54.2952C40.9816 54.401 38.9916 54.4264 37.3603 55.2402C35.6328 56.1021 35.3658 58.0539 37.5436 58.3228C38.5245 58.444 39.5065 58.2437 40.4723 58.0574C41.2633 57.9048 42.3377 57.9542 43.0852 57.6274C44.4781 57.0186 44.3887 54.1922 42.7231 54.2952Z" fill="#D6EAF2"/>
<path fill-rule="evenodd" clip-rule="evenodd" d="M93.5272 54.2952C95.2687 54.401 97.2587 54.4264 98.89 55.2402C100.618 56.1021 100.885 58.0539 98.7067 58.3228C97.7258 58.444 96.7438 58.2437 95.778 58.0574C94.987 57.9048 93.9126 57.9542 93.1651 57.6274C91.772 57.0186 91.8616 54.1922 93.5272 54.2952Z" fill="#D6EAF2"/>
<path fill-rule="evenodd" clip-rule="evenodd" d="M73.3027 55.4462C72.3094 54.1771 69.7206 53.4443 68.0874 53.4443C66.4541 53.4443 63.9413 54.1771 62.9481 55.4462C62.4471 56.0861 62.4301 56.9422 63.2982 57.3434C64.3792 57.8431 65.3445 56.9369 66.2098 56.4629C67.3165 55.8567 69.0167 55.9233 70.041 56.4629C70.9129 56.9224 71.8714 57.8431 72.9525 57.3434C73.8207 56.9422 73.8037 56.0861 73.3027 55.4462Z" fill="#D6EAF2"/>
</g>
</g>
</g>
</g>
<g clip-path="url(#clip1)">
<mask id="mask6" mask-type="alpha" maskUnits="userSpaceOnUse" x="91" y="67" width="67" height="87">
<path d="M132.697 118.682V125.157H134.018C147.15 125.157 157.796 136.508 157.796 150.51V153.679H91.7441V150.51C91.7441 136.508 102.39 125.157 115.523 125.157H116.844V118.682C111.151 115.799 107.059 109.906 106.376 102.933C104.453 102.643 102.973 100.88 102.973 98.7491V93.8195C102.973 91.7258 104.401 89.9878 106.276 89.6526V87.4815C106.276 76.5914 114.556 67.7632 124.77 67.7632C134.985 67.7632 143.265 76.5914 143.265 87.4815V89.6526C145.139 89.9878 146.567 91.7258 146.567 93.8195V98.7491C146.567 100.88 145.088 102.643 143.164 102.933C142.481 109.906 138.389 115.799 132.697 118.682Z" fill="white"/>
</mask>
<g mask="url(#mask6)">
<path d="M132.697 118.682V125.157H134.018C147.15 125.157 157.796 136.508 157.796 150.51V153.679H91.7441V150.51C91.7441 136.508 102.39 125.157 115.523 125.157H116.844V118.682C111.151 115.799 107.059 109.906 106.376 102.933C104.453 102.643 102.973 100.88 102.973 98.7491V93.8195C102.973 91.7258 104.401 89.9878 106.276 89.6526V87.4815C106.276 76.5914 114.556 67.7632 124.77 67.7632C134.985 67.7632 143.265 76.5914 143.265 87.4815V89.6526C145.139 89.9878 146.567 91.7258 146.567 93.8195V98.7491C146.567 100.88 145.088 102.643 143.164 102.933C142.481 109.906 138.389 115.799 132.697 118.682Z" fill="#D0C6AC"/>
<path d="M168.365 67.7632H81.1758V153.679H168.365V67.7632Z" fill="#AE5D29"/>
<path fill-rule="evenodd" clip-rule="evenodd" d="M143.265 95.5796V103.678C143.265 114.568 134.984 123.396 124.77 123.396C114.556 123.396 106.275 114.568 106.275 103.678V95.5796V100.861C106.275 111.751 114.556 120.58 124.77 120.58C134.984 120.58 143.265 111.751 143.265 100.861V95.5796Z" fill="black" fill-opacity="0.1"/>
</g>
<mask id="mask7" mask-type="alpha" maskUnits="userSpaceOnUse" x="91" y="126" width="67" height="28">
<path fill-rule="evenodd" clip-rule="evenodd" d="M141.133 126.33C150.79 129.554 157.796 139.169 157.796 150.528V153.678H91.7441V150.528C91.7441 139.029 98.9236 129.319 108.764 126.214C108.648 126.714 108.587 127.225 108.587 127.744C108.587 133.477 115.907 138.125 124.935 138.125C133.964 138.125 141.283 133.477 141.283 127.744C141.283 127.265 141.232 126.792 141.133 126.33Z" fill="white"/>
</mask>
<g mask="url(#mask7)">
<path fill-rule="evenodd" clip-rule="evenodd" d="M141.133 126.33C150.79 129.554 157.796 139.169 157.796 150.528V153.678H91.7441V150.528C91.7441 139.029 98.9236 129.319 108.764 126.214C108.648 126.714 108.587 127.225 108.587 127.744C108.587 133.477 115.907 138.125 124.935 138.125C133.964 138.125 141.283 133.477 141.283 127.744C141.283 127.265 141.232 126.792 141.133 126.33Z" fill="#E6E6E6"/>
<path d="M168.365 114.946H81.1758V153.679H168.365V114.946Z" fill="#FF5C5C"/>
</g>
<mask id="mask8" mask-type="alpha" maskUnits="userSpaceOnUse" x="118" y="106" width="14" height="8">
<path fill-rule="evenodd" clip-rule="evenodd" d="M118.534 107.596C118.884 110.939 121.542 113.537 124.77 113.537C128.008 113.537 130.673 110.923 131.01 107.565C131.037 107.295 130.754 106.847 130.399 106.847C125.48 106.847 121.711 106.847 119.185 106.847C118.828 106.847 118.499 107.262 118.534 107.596Z" fill="white"/>
</mask>
<g mask="url(#mask8)">
<path fill-rule="evenodd" clip-rule="evenodd" d="M118.534 107.596C118.884 110.939 121.542 113.537 124.77 113.537C128.008 113.537 130.673 110.923 131.01 107.565C131.037 107.295 130.754 106.847 130.399 106.847C125.48 106.847 121.711 106.847 119.185 106.847C118.828 106.847 118.499 107.262 118.534 107.596Z" fill="black" fill-opacity="0.7"/>
<path d="M128.403 102.974H121.468C120.556 102.974 119.816 103.762 119.816 104.735V106.847C119.816 107.82 120.556 108.608 121.468 108.608H128.403C129.315 108.608 130.054 107.82 130.054 106.847V104.735C130.054 103.762 129.315 102.974 128.403 102.974Z" fill="white"/>
<path d="M123.119 118.467C125.126 118.467 126.752 116.733 126.752 114.593C126.752 112.454 125.126 110.72 123.119 110.72C121.113 110.72 119.486 112.454 119.486 114.593C119.486 116.733 121.113 118.467 123.119 118.467Z" fill="#FF4F6D"/>
<path d="M126.421 118.467C128.428 118.467 130.054 116.733 130.054 114.593C130.054 112.454 128.428 110.72 126.421 110.72C124.415 110.72 122.789 112.454 122.789 114.593C122.789 116.733 124.415 118.467 126.421 118.467Z" fill="#FF4F6D"/>
</g>
<path fill-rule="evenodd" clip-rule="evenodd" d="M120.807 100.861C120.807 102.417 122.581 103.678 124.77 103.678C126.959 103.678 128.733 102.417 128.733 100.861" fill="black" fill-opacity="0.16"/>
<path d="M116.183 99.4529C118.737 99.4529 120.807 97.2458 120.807 94.5233C120.807 91.8008 118.737 89.5938 116.183 89.5938C113.63 89.5938 111.56 91.8008 111.56 94.5233C111.56 97.2458 113.63 99.4529 116.183 99.4529Z" fill="white"/>
<path d="M133.357 99.4529C135.91 99.4529 137.98 97.2458 137.98 94.5233C137.98 91.8008 135.91 89.5938 133.357 89.5938C130.803 89.5938 128.733 91.8008 128.733 94.5233C128.733 97.2458 130.803 99.4529 133.357 99.4529Z" fill="white"/>
<path d="M116.183 96.636C117.278 96.636 118.165 95.6901 118.165 94.5233C118.165 93.3565 117.278 92.4106 116.183 92.4106C115.089 92.4106 114.202 93.3565 114.202 94.5233C114.202 95.6901 115.089 96.636 116.183 96.636Z" fill="black" fill-opacity="0.7"/>
<path d="M133.357 96.636C134.451 96.636 135.338 95.6901 135.338 94.5233C135.338 93.3565 134.451 92.4106 133.357 92.4106C132.262 92.4106 131.375 93.3565 131.375 94.5233C131.375 95.6901 132.262 96.636 133.357 96.636Z" fill="black" fill-opacity="0.7"/>
<path fill-rule="evenodd" clip-rule="evenodd" d="M120.838 89.9896C120.839 89.9867 120.839 89.9867 120.838 89.9896V89.9896ZM112.644 85.7221C111.862 85.6285 111.04 85.8972 110.522 86.5791C110.327 86.8354 110.009 87.4522 110.023 87.7822C110.029 87.9076 110.098 87.9145 110.395 87.9899C110.938 88.128 111.881 87.5977 112.493 87.6478C113.346 87.7174 114.16 88.1391 114.898 88.591C116.166 89.3666 117.658 90.9997 119.223 90.9143C119.339 90.9079 121.013 90.302 120.679 89.9557C120.575 89.7853 119.677 89.5585 119.523 89.4763C118.806 89.0946 118.081 88.6143 117.395 88.167C115.9 87.1912 114.441 85.9354 112.644 85.7221Z" fill="black" fill-opacity="0.6"/>
<path fill-rule="evenodd" clip-rule="evenodd" d="M128.743 89.9895C128.742 89.9867 128.742 89.9867 128.743 89.9895V89.9895ZM136.958 85.7221C137.74 85.6285 138.563 85.8972 139.081 86.5791C139.276 86.8354 139.594 87.4522 139.579 87.7822C139.574 87.9076 139.505 87.9145 139.208 87.9899C138.665 88.128 137.722 87.5977 137.109 87.6478C136.257 87.7174 135.443 88.1391 134.704 88.591C133.436 89.3666 131.945 90.9997 130.38 90.9143C130.263 90.9079 128.59 90.302 128.923 89.9557C129.028 89.7853 129.925 89.5585 130.08 89.4763C130.797 89.0946 131.522 88.6143 132.207 88.167C133.703 87.1912 135.161 85.9354 136.958 85.7221Z" fill="black" fill-opacity="0.6"/>
<mask id="mask9" mask-type="alpha" maskUnits="userSpaceOnUse" x="81" y="55" width="88" height="99">
<path d="M168.365 55.0869H81.1758V153.678H168.365V55.0869Z" fill="white"/>
</mask>
<g mask="url(#mask9)">
<mask id="mask10" mask-type="alpha" maskUnits="userSpaceOnUse" x="105" y="67" width="39" height="23">
<path fill-rule="evenodd" clip-rule="evenodd" d="M132.702 75.6426C130.38 75.3984 127.629 75.2458 124.873 75.2437C118.498 75.2389 112.094 76.0317 110.899 76.9178C107.694 79.4699 106.453 89.0466 106.606 89.5938C106.498 90.0244 106.06 90.1179 105.945 89.5938C105.708 85.9678 105.945 67.6663 124.77 67.4108C143.595 67.1553 143.832 85.9678 143.595 89.5938C143.48 90.1179 143.042 90.0244 142.934 89.5938C143.087 89.0466 141.846 79.4699 138.641 76.9178C138.06 76.4869 136.247 76.0763 133.806 75.7696L135.008 72.6925L132.702 75.6426Z" fill="white"/>
</mask>
<g mask="url(#mask10)">
<path fill-rule="evenodd" clip-rule="evenodd" d="M132.702 75.6426C130.38 75.3984 127.629 75.2458 124.873 75.2437C118.498 75.2389 112.094 76.0317 110.899 76.9178C107.694 79.4699 106.453 89.0466 106.606 89.5938C106.498 90.0244 106.06 90.1179 105.945 89.5938C105.708 85.9678 105.945 67.6663 124.77 67.4108C143.595 67.1553 143.832 85.9678 143.595 89.5938C143.48 90.1179 143.042 90.0244 142.934 89.5938C143.087 89.0466 141.846 79.4699 138.641 76.9178C138.06 76.4869 136.247 76.0763 133.806 75.7696L135.008 72.6925L132.702 75.6426Z" fill="#28354B"/>
<path d="M192.804 67.0581H105.615V165.65H192.804V67.0581Z" fill="#2C1B18"/>
</g>
</g>
</g>
<defs>
<filter id="filter0_d" x="31.9873" y="49.5767" width="72.2757" height="28.868" filterUnits="userSpaceOnUse" color-interpolation-filters="sRGB">
<feFlood flood-opacity="0" result="BackgroundImageFix"/>
<feColorMatrix in="SourceAlpha" type="matrix" values="0 0 0 0 0 0 0 0 0 0 0 0 0 0 0 0 0 0 127 0"/>
<feOffset dy="2"/>
<feGaussianBlur stdDeviation="2"/>
<feColorMatrix type="matrix" values="0 0 0 0 0 0 0 0 0 0 0 0 0 0 0 0 0 0 0.2 0"/>
<feBlend mode="normal" in2="BackgroundImageFix" result="effect1_dropShadow"/>
<feBlend mode="normal" in="SourceGraphic" in2="effect1_dropShadow" result="shape"/>
</filter>
<clipPath id="clip0">
<rect width="134.747" height="154.497" fill="white" transform="translate(0.769531 0.26123)"/>
</clipPath>
<clipPath id="clip1">
<rect width="98.0876" height="109.121" fill="white" transform="translate(92.9126 44.5576)"/>
</clipPath>
</defs>
</svg>
