<svg width="143" height="151" viewBox="0 0 143 151" fill="none" xmlns="http://www.w3.org/2000/svg">
<g clip-path="url(#clip0)">
<mask id="mask0" mask-type="alpha" maskUnits="userSpaceOnUse" x="17" y="19" width="109" height="132">
<path d="M84.3064 97.5503V107.415H86.4681C107.958 107.415 125.379 124.709 125.379 146.041V150.869H17.2935V146.041C17.2935 124.709 34.7144 107.415 56.2042 107.415H58.3659V97.5503C49.0504 93.1574 42.3543 84.1795 41.2372 73.5543C38.0893 73.1125 35.668 70.4271 35.668 67.1804V59.6698C35.668 56.48 38.0051 53.832 41.0723 53.3212V50.0134C41.0723 33.4215 54.6219 19.9712 71.3362 19.9712C88.0505 19.9712 101.6 33.4215 101.6 50.0134V53.3212C104.667 53.832 107.004 56.48 107.004 59.6698V67.1804C107.004 70.4271 104.583 73.1125 101.435 73.5543C100.318 84.1795 93.622 93.1574 84.3064 97.5503Z" fill="white"/>
</mask>
<g mask="url(#mask0)">
<path d="M84.3064 97.5503V107.415H86.4681C107.958 107.415 125.379 124.709 125.379 146.041V150.869H17.2935V146.041C17.2935 124.709 34.7144 107.415 56.2042 107.415H58.3659V97.5503C49.0504 93.1574 42.3543 84.1795 41.2372 73.5543C38.0893 73.1125 35.668 70.4271 35.668 67.1804V59.6698C35.668 56.48 38.0051 53.832 41.0723 53.3212V50.0134C41.0723 33.4215 54.6219 19.9712 71.3362 19.9712C88.0505 19.9712 101.6 33.4215 101.6 50.0134V53.3212C104.667 53.832 107.004 56.48 107.004 59.6698V67.1804C107.004 70.4271 104.583 73.1125 101.435 73.5543C100.318 84.1795 93.622 93.1574 84.3064 97.5503Z" fill="#D0C6AC"/>
<path d="M142.673 19.9712H0V150.869H142.673V19.9712Z" fill="#AE5D29"/>
<path fill-rule="evenodd" clip-rule="evenodd" d="M101.6 62.3521V74.6908C101.6 91.2827 88.0505 104.733 71.3362 104.733C54.6219 104.733 41.0723 91.2827 41.0723 74.6908V62.3521V70.3991C41.0723 86.9909 54.6219 100.441 71.3362 100.441C88.0505 100.441 101.6 86.9909 101.6 70.3991V62.3521Z" fill="black" fill-opacity="0.1"/>
</g>
<mask id="mask1" mask-type="alpha" maskUnits="userSpaceOnUse" x="36" y="107" width="70" height="44">
<path fill-rule="evenodd" clip-rule="evenodd" d="M50.8001 107.785V131.556H91.8726V107.785C96.9326 108.483 101.681 110.146 105.924 112.583L105.924 150.869H101.06H41.6129H36.749V112.583C40.9914 110.146 45.7401 108.483 50.8001 107.785Z" fill="white"/>
</mask>
<g mask="url(#mask1)">
<path fill-rule="evenodd" clip-rule="evenodd" d="M50.8001 107.785V131.556H91.8726V107.785C96.9326 108.483 101.681 110.146 105.924 112.583L105.924 150.869H101.06H41.6129H36.749V112.583C40.9914 110.146 45.7401 108.483 50.8001 107.785Z" fill="#B7C1DB"/>
<path d="M142.673 91.8579H0V150.869H142.673V91.8579Z" fill="#FFAFB9"/>
<path d="M43.7744 139.067C45.2667 139.067 46.4765 137.866 46.4765 136.385C46.4765 134.904 45.2667 133.703 43.7744 133.703C42.2821 133.703 41.0723 134.904 41.0723 136.385C41.0723 137.866 42.2821 139.067 43.7744 139.067Z" fill="#F4F4F4"/>
<path d="M98.8979 139.067C100.39 139.067 101.6 137.866 101.6 136.385C101.6 134.904 100.39 133.703 98.8979 133.703C97.4056 133.703 96.1958 134.904 96.1958 136.385C96.1958 137.866 97.4056 139.067 98.8979 139.067Z" fill="#F4F4F4"/>
</g>
<mask id="mask2" mask-type="alpha" maskUnits="userSpaceOnUse" x="61" y="79" width="21" height="11">
<path fill-rule="evenodd" clip-rule="evenodd" d="M61.1321 80.6607C61.7038 85.7527 66.0544 89.712 71.3366 89.712C76.635 89.712 80.9962 85.7282 81.5462 80.6135C81.5904 80.2018 81.1273 79.519 80.5469 79.519C72.4978 79.519 66.3311 79.519 62.1962 79.519C61.6124 79.519 61.0749 80.1512 61.1321 80.6607Z" fill="white"/>
</mask>
<g mask="url(#mask2)">
<path fill-rule="evenodd" clip-rule="evenodd" d="M61.1321 80.6607C61.7038 85.7527 66.0544 89.712 71.3366 89.712C76.635 89.712 80.9962 85.7282 81.5462 80.6135C81.5904 80.2018 81.1273 79.519 80.5469 79.519C72.4978 79.519 66.3311 79.519 62.1962 79.519C61.6124 79.519 61.0749 80.1512 61.1321 80.6607Z" fill="black" fill-opacity="0.7"/>
<path d="M77.2811 73.6182H65.9321C64.4398 73.6182 63.23 74.8191 63.23 76.3005V79.5193C63.23 81.0007 64.4398 82.2017 65.9321 82.2017H77.2811C78.7734 82.2017 79.9832 81.0007 79.9832 79.5193V76.3005C79.9832 74.8191 78.7734 73.6182 77.2811 73.6182Z" fill="white"/>
<path d="M68.6342 97.2227C71.9173 97.2227 74.5789 94.5807 74.5789 91.3216C74.5789 88.0624 71.9173 85.4204 68.6342 85.4204C65.351 85.4204 62.6895 88.0624 62.6895 91.3216C62.6895 94.5807 65.351 97.2227 68.6342 97.2227Z" fill="#FF4F6D"/>
<path d="M74.0385 97.2227C77.3216 97.2227 79.9832 94.5807 79.9832 91.3216C79.9832 88.0624 77.3216 85.4204 74.0385 85.4204C70.7553 85.4204 68.0938 88.0624 68.0938 91.3216C68.0938 94.5807 70.7553 97.2227 74.0385 97.2227Z" fill="#FF4F6D"/>
</g>
<path fill-rule="evenodd" clip-rule="evenodd" d="M64.8516 70.3994C64.8516 72.7697 67.7551 74.6912 71.3367 74.6912C74.9183 74.6912 77.8218 72.7697 77.8218 70.3994" fill="black" fill-opacity="0.16"/>
<path d="M57.2857 68.2535C61.4643 68.2535 64.8517 64.8909 64.8517 60.743C64.8517 56.595 61.4643 53.2324 57.2857 53.2324C53.1071 53.2324 49.7197 56.595 49.7197 60.743C49.7197 64.8909 53.1071 68.2535 57.2857 68.2535Z" fill="white"/>
<path d="M85.3878 68.2535C89.5663 68.2535 92.9537 64.8909 92.9537 60.743C92.9537 56.595 89.5663 53.2324 85.3878 53.2324C81.2092 53.2324 77.8218 56.595 77.8218 60.743C77.8218 64.8909 81.2092 68.2535 85.3878 68.2535Z" fill="white"/>
<path d="M57.2855 63.9615C59.0764 63.9615 60.5281 62.5204 60.5281 60.7427C60.5281 58.965 59.0764 57.5239 57.2855 57.5239C55.4947 57.5239 54.043 58.965 54.043 60.7427C54.043 62.5204 55.4947 63.9615 57.2855 63.9615Z" fill="black" fill-opacity="0.7"/>
<path d="M85.3881 63.9615C87.1789 63.9615 88.6306 62.5204 88.6306 60.7427C88.6306 58.965 87.1789 57.5239 85.3881 57.5239C83.5973 57.5239 82.1455 58.965 82.1455 60.7427C82.1455 62.5204 83.5973 63.9615 85.3881 63.9615Z" fill="black" fill-opacity="0.7"/>
<path d="M49.5196 53.8539C51.6353 50.8987 57.4356 49.2415 62.4319 50.4595C63.0116 50.6008 63.597 50.2488 63.7393 49.6734C63.8817 49.0979 63.5271 48.5168 62.9474 48.3755C57.1451 46.9611 50.4285 48.88 47.7575 52.6108C47.4117 53.0938 47.5259 53.7637 48.0124 54.1069C48.499 54.4502 49.1738 54.3369 49.5196 53.8539Z" fill="black" fill-opacity="0.6"/>
<path d="M93.1538 53.8539C91.038 50.8987 85.2377 49.2415 80.2414 50.4595C79.6617 50.6008 79.0764 50.2488 78.934 49.6734C78.7916 49.0979 79.1462 48.5168 79.7259 48.3755C85.5282 46.9611 92.2448 48.88 94.9158 52.6108C95.2616 53.0938 95.1475 53.7637 94.6609 54.1069C94.1743 54.4502 93.4996 54.3369 93.1538 53.8539Z" fill="black" fill-opacity="0.6"/>
<mask id="mask3" mask-type="alpha" maskUnits="userSpaceOnUse" x="0" y="0" width="143" height="151">
<path d="M142.673 0.658203H0V150.869H142.673V0.658203Z" fill="white"/>
</mask>
<g mask="url(#mask3)">
<mask id="mask4" mask-type="alpha" maskUnits="userSpaceOnUse" x="39" y="0" width="65" height="54">
<path fill-rule="evenodd" clip-rule="evenodd" d="M61.5761 15.8602C61.0432 15.9791 60.52 16.1034 60.0074 16.2319C51.8512 18.2747 47.0263 24.0757 42.8865 32.6575C40.8539 36.8713 39.649 41.8544 39.4636 46.5162C39.3909 48.3466 39.6395 50.236 40.1363 51.9984C40.3185 52.6453 41.3012 54.8881 41.571 53.0759C41.6607 52.4726 41.3321 51.6402 41.3003 50.9991C41.2586 50.1578 41.3034 49.3055 41.3611 48.4655C41.4692 46.895 41.7512 45.3543 42.2531 43.8571C42.9704 41.7177 43.8834 39.3981 45.281 37.593C48.7402 33.1256 51.2135 23.8366 71.3364 23.0132C91.4593 22.1899 97.6815 36.8489 99.5374 39.9817C101.734 43.6908 100.723 48.2469 101.395 52.2669C101.65 53.7956 102.229 53.7613 102.547 52.394C103.086 50.0713 103.34 47.6583 103.169 45.2705C102.78 39.8802 100.788 25.7143 89.8778 19.4379C86.9366 17.7458 84.0031 16.5846 81.1271 15.831C82.7805 14.2368 83.7662 12.2285 83.7662 10.0464C83.7662 4.86144 78.2012 0.658203 71.3364 0.658203C64.4716 0.658203 58.9066 4.86144 58.9066 10.0464C58.9066 12.2419 59.9044 14.2614 61.5761 15.8602Z" fill="white"/>
</mask>
<g mask="url(#mask4)">
<path fill-rule="evenodd" clip-rule="evenodd" d="M61.5761 15.8602C61.0432 15.9791 60.52 16.1034 60.0074 16.2319C51.8512 18.2747 47.0263 24.0757 42.8865 32.6575C40.8539 36.8713 39.649 41.8544 39.4636 46.5162C39.3909 48.3466 39.6395 50.236 40.1363 51.9984C40.3185 52.6453 41.3012 54.8881 41.571 53.0759C41.6607 52.4726 41.3321 51.6402 41.3003 50.9991C41.2586 50.1578 41.3034 49.3055 41.3611 48.4655C41.4692 46.895 41.7512 45.3543 42.2531 43.8571C42.9704 41.7177 43.8834 39.3981 45.281 37.593C48.7402 33.1256 51.2135 23.8366 71.3364 23.0132C91.4593 22.1899 97.6815 36.8489 99.5374 39.9817C101.734 43.6908 100.723 48.2469 101.395 52.2669C101.65 53.7956 102.229 53.7613 102.547 52.394C103.086 50.0713 103.34 47.6583 103.169 45.2705C102.78 39.8802 100.788 25.7143 89.8778 19.4379C86.9366 17.7458 84.0031 16.5846 81.1271 15.831C82.7805 14.2368 83.7662 12.2285 83.7662 10.0464C83.7662 4.86144 78.2012 0.658203 71.3364 0.658203C64.4716 0.658203 58.9066 4.86144 58.9066 10.0464C58.9066 12.2419 59.9044 14.2614 61.5761 15.8602Z" fill="#28354B"/>
<path d="M142.132 0.658203H-0.540527V150.869H142.132V0.658203Z" fill="#2C1B18"/>
</g>
</g>
</g>
<defs>
<clipPath id="clip0">
<rect width="142.673" height="150.211" fill="white" transform="translate(0 0.658203)"/>
</clipPath>
</defs>
</svg>
