<svg width="54" height="57" viewBox="0 0 54 57" fill="none" xmlns="http://www.w3.org/2000/svg">
<path d="M27 0.5C12.4212 0.5 0.55957 11.3618 0.55957 24.7139C0.55957 33.6689 5.96195 41.8413 14.466 45.9735V54.0386C14.466 55.4269 15.6947 56.5521 17.2106 56.5521H36.7894C38.3053 56.5521 39.534 55.4277 39.534 54.0386V46.0355C48.0371 41.7959 53.4395 33.5959 53.4395 24.7139C53.4395 11.3627 41.5789 0.5 27 0.5ZM35.6412 42.204C34.6686 42.6146 34.0446 43.506 34.0446 44.4872V51.5251H19.9554V44.4034C19.9554 43.4106 19.316 42.5098 18.3251 42.1068C10.8678 39.0712 6.04912 32.2436 6.04912 24.7139C6.04912 14.1343 15.4478 5.52713 27.0002 5.52713C38.5526 5.52713 47.9504 14.1343 47.9504 24.7139C47.9503 32.1841 43.1187 39.0495 35.6412 42.204Z" fill="#00B9E2"/>
</svg>
