<svg width="72" height="72" viewBox="0 0 72 72" fill="none" xmlns="http://www.w3.org/2000/svg">
<path d="M35.5763 5.29425C32.176 1.89394 27.6614 0.0140625 22.8651 0C22.8466 0 22.8298 0 22.8113 0C18.0292 0 13.5393 1.85695 10.1646 5.23153C6.77664 8.61947 4.91884 13.1297 4.93121 17.9322C4.94528 22.7285 6.82515 27.2431 10.2255 30.6426C13.6266 34.0429 18.1404 35.9228 22.9367 35.9369C22.9553 35.9369 22.9728 35.9369 22.9906 35.9369C27.7726 35.9369 32.2627 34.0799 35.6382 30.7043C39.0262 27.3172 40.884 22.8071 40.8698 18.0046C40.8557 13.2083 38.9767 8.69372 35.5763 5.29425ZM31.8909 26.9598C29.5165 29.3333 26.3573 30.6391 22.9896 30.6391C22.9772 30.6391 22.9648 30.6391 22.9524 30.6391C19.5654 30.6294 16.3761 29.3005 13.9727 26.8962C11.5693 24.4928 10.2404 21.3034 10.2307 17.9165C10.221 14.5347 11.5278 11.3604 13.91 8.97722C16.2843 6.60375 19.4444 5.29791 22.8121 5.29791C22.8236 5.29791 22.8369 5.29791 22.8492 5.29791C26.2363 5.30761 29.4256 6.63652 31.829 9.04078C34.2324 11.4442 35.5613 14.6336 35.571 18.0205C35.5808 21.4023 34.274 24.5766 31.8909 26.9598Z" fill="#00B9E2"/>
<path d="M66.2928 57.5872L35.9187 27.213C34.8856 26.179 33.2071 26.179 32.1731 27.213C31.1383 28.2479 31.1383 29.9255 32.1731 30.9594L60.6657 59.4528L52.5777 67.4693C51.5385 68.4997 51.5314 70.1765 52.5609 71.2157C53.0793 71.7384 53.7609 71.9998 54.4425 71.9998C55.1162 71.9998 55.7908 71.7446 56.3073 71.2307L66.2848 61.3414C66.7854 60.8462 67.0671 60.1706 67.0689 59.4661C67.0706 58.7615 66.7908 58.0851 66.2928 57.5872Z" fill="#00B9E2"/>
<path d="M56.7567 48.053C55.7218 47.0181 54.046 47.0181 53.0111 48.053L43.74 57.3241C42.7052 58.3581 42.7052 60.0358 43.74 61.0697C44.2574 61.587 44.9346 61.8458 45.6129 61.8458C46.2901 61.8458 46.9682 61.587 47.4857 61.0697L56.7568 51.7985C57.7915 50.7647 57.7915 49.087 56.7567 48.053Z" fill="#00B9E2"/>
</svg>
